<svg xmlns="http://www.w3.org/2000/svg" width="902" height="508.001" viewBox="0 0 902 508.001">
  <g id="Group_250" data-name="Group 250" transform="translate(-594 -1312)">
    <rect id="Rectangle_64" data-name="Rectangle 64" width="902" height="76" rx="8" transform="translate(594 1312)" fill="#002366" opacity="0.11"/>
    <rect id="Rectangle_63" data-name="Rectangle 63" width="205" height="76" rx="8" transform="translate(594 1420)" fill="#002366"/>
    <rect id="Rectangle_64-2" data-name="Rectangle 64" width="902" height="76" rx="8" transform="translate(594 1420)" fill="#002366" opacity="0.11"/>
    <rect id="Rectangle_63-2" data-name="Rectangle 63" width="205" height="76" rx="8" transform="translate(594 1528)" fill="#002366"/>
    <rect id="Rectangle_64-3" data-name="Rectangle 64" width="902" height="76" rx="8" transform="translate(594 1528)" fill="#002366" opacity="0.11"/>
    <rect id="Rectangle_63-3" data-name="Rectangle 63" width="205" height="76" rx="8" transform="translate(594 1636)" fill="#002366"/>
    <rect id="Rectangle_64-4" data-name="Rectangle 64" width="902" height="76" rx="8" transform="translate(594 1636)" fill="#002366" opacity="0.11"/>
    <rect id="Rectangle_63-4" data-name="Rectangle 63" width="205" height="76" rx="8" transform="translate(594 1744)" fill="#002366"/>
    <rect id="Rectangle_64-5" data-name="Rectangle 64" width="902" height="76" rx="8" transform="translate(594 1744)" fill="#002366" opacity="0.11"/>
    <rect id="Rectangle_63-5" data-name="Rectangle 63" width="205" height="76" rx="8" transform="translate(594 1312)" fill="#002366"/>
    <path id="Subtraction_1" data-name="Subtraction 1" d="M-17093-3823h-189a8.011,8.011,0,0,1-8-8v-60a7.99,7.99,0,0,1,4.273-7.082A8.067,8.067,0,0,0-17286-3896v60a8.009,8.009,0,0,0,8,8h189a7.9,7.9,0,0,0,3.729-.92A8.013,8.013,0,0,1-17093-3823Z" transform="translate(17884 5211)" fill="#fff" opacity="0.3"/>
    <path id="Subtraction_2" data-name="Subtraction 2" d="M-17093-3823h-189a8.011,8.011,0,0,1-8-8v-60a7.99,7.99,0,0,1,4.273-7.082A8.067,8.067,0,0,0-17286-3896v60a8.009,8.009,0,0,0,8,8h189a7.9,7.9,0,0,0,3.729-.92A8.013,8.013,0,0,1-17093-3823Z" transform="translate(17884 5319)" fill="#fff" opacity="0.3"/>
    <path id="Subtraction_3" data-name="Subtraction 3" d="M-17093-3823h-189a8.011,8.011,0,0,1-8-8v-60a7.99,7.99,0,0,1,4.273-7.082A8.067,8.067,0,0,0-17286-3896v60a8.009,8.009,0,0,0,8,8h189a7.9,7.9,0,0,0,3.729-.92A8.013,8.013,0,0,1-17093-3823Z" transform="translate(17884 5427)" fill="#fff" opacity="0.3"/>
    <path id="Subtraction_4" data-name="Subtraction 4" d="M-17093-3823h-189a8.011,8.011,0,0,1-8-8v-60a7.99,7.99,0,0,1,4.273-7.082A8.067,8.067,0,0,0-17286-3896v60a8.009,8.009,0,0,0,8,8h189a7.9,7.9,0,0,0,3.729-.92A8.013,8.013,0,0,1-17093-3823Z" transform="translate(17884 5535)" fill="#fff" opacity="0.3"/>
    <path id="Subtraction_5" data-name="Subtraction 5" d="M-17093-3823h-189a8.011,8.011,0,0,1-8-8v-60a7.99,7.99,0,0,1,4.273-7.082A8.067,8.067,0,0,0-17286-3896v60a8.009,8.009,0,0,0,8,8h189a7.9,7.9,0,0,0,3.729-.92A8.013,8.013,0,0,1-17093-3823Z" transform="translate(17884 5643)" fill="#fff" opacity="0.3"/>
    <text id="JLPT_N1" data-name="JLPT   N1" transform="translate(629 1363)" fill="#fff" font-size="36" font-family="Poppins-Regular, Poppins"><tspan x="0" y="0" xml:space="preserve">JLPT   N1</tspan></text>
    <text id="JLPT_N2" data-name="JLPT   N2" transform="translate(629 1471)" fill="#fff" font-size="36" font-family="Poppins-Regular, Poppins"><tspan x="0" y="0" xml:space="preserve">JLPT   N2</tspan></text>
    <text id="JLPT_N3" data-name="JLPT   N3" transform="translate(629 1579)" fill="#fff" font-size="36" font-family="Poppins-Regular, Poppins"><tspan x="0" y="0" xml:space="preserve">JLPT   N3</tspan></text>
    <text id="JLPT_N4" data-name="JLPT   N4" transform="translate(629 1687)" fill="#fff" font-size="36" font-family="Poppins-Regular, Poppins"><tspan x="0" y="0" xml:space="preserve">JLPT   N4</tspan></text>
    <text id="JLPT_N5" data-name="JLPT   N5" transform="translate(629 1795)" fill="#fff" font-size="36" font-family="Poppins-Regular, Poppins"><tspan x="0" y="0" xml:space="preserve">JLPT   N5</tspan></text>
    <text id="Literature_Level" data-name="Literature Level" transform="translate(875 1359)" font-size="22" font-family="Poppins-Regular, Poppins"><tspan x="0" y="0">Literature Level</tspan></text>
    <text id="Native_Level_3-4_months_" data-name="Native Level (3-4 months)" transform="translate(875 1467)" font-size="22" font-family="Poppins-Regular, Poppins"><tspan x="0" y="0">Native Level (3-4 months)</tspan></text>
    <text id="Business_Level_3-4_months_" data-name="Business Level (3-4 months)" transform="translate(875 1575)" font-size="22" font-family="Poppins-Regular, Poppins"><tspan x="0" y="0">Business Level (3-4 months)</tspan></text>
    <text id="Conversation_Level_2-3_months_" data-name="Conversation Level (2-3 months)" transform="translate(875 1683)" font-size="22" font-family="Poppins-Regular, Poppins"><tspan x="0" y="0">Conversation Level (2-3 months)</tspan></text>
    <text id="Basic_Level_2-3_months_" data-name="Basic Level (2-3 months)" transform="translate(875 1774)" font-size="22" font-family="Poppins-Regular, Poppins"><tspan x="0" y="0">Basic Level (2-3 months)</tspan></text>
    <text id="Understand_and_form_Sentences." data-name="Understand and form Sentences." transform="translate(875 1806)" font-size="22" font-family="Poppins-Regular, Poppins"><tspan x="0" y="0">Understand and form Sentences.</tspan></text>
  </g>
</svg>
